<?xml version="1.0" standalone="no"?>
<!DOCTYPE svg PUBLIC "-//W3C//DTD SVG 20010904//EN"
 "http://www.w3.org/TR/2001/REC-SVG-20010904/DTD/svg10.dtd">
<svg version="1.0" xmlns="http://www.w3.org/2000/svg"
 width="700.000000pt" height="700.000000pt" viewBox="0 0 700.000000 700.000000"
 preserveAspectRatio="xMidYMid meet">
<metadata>
Created by potrace 1.14, written by Peter Selinger 2001-2017
</metadata>
<g transform="translate(0.000000,700.000000) scale(0.100000,-0.100000)"
fill="#000000" stroke="none">
<path d="M1435 6408 c-211 -24 -405 -120 -565 -278 -142 -140 -226 -299 -272
-512 -15 -73 -19 -3507 -4 -3509 38 -5 479 -3 487 1 5 4 9 396 9 966 1 776 4
975 15 1044 44 265 161 491 351 677 211 207 417 303 749 347 17 3 800 5 1741
5 l1710 1 -2 203 c-1 207 -10 281 -44 385 -32 98 -57 150 -114 236 -147 225
-362 369 -636 428 -65 13 -3308 19 -3425 6z"/>
<path d="M2257 4894 c-1 -1 -27 -4 -58 -7 -363 -37 -695 -311 -807 -667 -48
-152 -46 -100 -46 -1475 0 -1181 2 -1307 17 -1381 70 -334 316 -615 637 -727
152 -54 7 -50 2297 -52 1929 -2 2113 -1 2117 14 2 9 3 790 2 1736 l-2 1720
-23 88 c-52 203 -132 341 -276 481 -137 133 -331 230 -526 262 -35 6 -3326 13
-3332 8z"/>
</g>
</svg>
